With: Jack Black, Emily Blunt and Jason Segel

Lemuel Gulliver (Jack Black), een bezielde reisjournalist, krijgt een opdracht die hem in de bermuda driehoek brengt. Wanneer zijn schip vergaat vindt hij zichzelf aangespoeld op het verborgen eiland Lilliput, waar hele kleine mensjes wonen.

Travel writer Lemuel Gulliver takes an assignment in Bermuda, but ends up on the island of Liliput, where he towers over its tiny citizens. 

------------------ Dutch Friends ------------------
You can find my Friends at: http://www.Film-Test.nl 
------ They got my dutchs subs ---- and more ------

General:

Complete name                    : Gulliver's Travels\Gulliver's Travels.avi
Format                           : AVI
Format/Info                      : Audio Video Interleave
File size                        : 1.36 GiB
Duration                         : 1h 21mn
Overall bit rate                 : 2 391 Kbps

Video:

Format                           : MPEG-4 Visual
Format profile                   : Simple@L3
Format settings, BVOP            : No
Format settings, QPel            : No
Format settings, GMC             : No warppoints
Format settings, Matrix          : Default (H.263)
Codec ID                         : XVID
Codec ID/Hint                    : XviD
Duration                         : 1h 21mn
Bit rate                         : 1 932 Kbps
Width                            : 720 pixels
Height                           : 304 pixels
Display aspect ratio             : 2.35:1
Frame rate                       : 25.000 fps
Color space                      : YUV
Chroma subsampling               : 4:2:0
Bit depth                        : 8 bits
Scan type                        : Progressive
Bits/(Pixel*Frame)               : 0.353
Stream size                      : 1.10 GiB (81%)
Writing library                  : XviD 1.1.2 (UTC 2006-11-01)

Audio:

Format                           : AC-3
Format/Info                      : Audio Coding 3
Mode extension                   : CM (complete main)
Codec ID                         : 2000
Duration                         : 1h 21mn
Bit rate mode                    : Constant
Bit rate                         : 448 Kbps
Channel(s)                       : 6 channels
Channel positions                : Front: L C R, Side: L R, LFE
Sampling rate                    : 48.0 KHz
Bit depth                        : 16 bits
Stream size                      : 260 MiB (19%)
Alignment                        : Aligned on interleaves
Interleave, duration             : 32 ms (0.80 video frame)

